<svg width="24.565" height="16.383" viewBox="0 0 24.565 16.383" xmlns="http://www.w3.org/2000/svg"><g id="svgGroup" stroke-linecap="round" fill-rule="evenodd" font-size="9pt" stroke="#459e57" stroke-width="0.25mm" fill="#459e57" style="stroke:#459e57;stroke-width:0.25mm;fill:#459e57"><path d="M 10.063 12.059 L 10.063 13.105 L 8.429 13.105 L 8.429 9.36 L 10.063 9.36 A 2.723 2.723 0 0 0 10.11 9.874 A 2.087 2.087 0 0 0 10.261 10.354 A 2.28 2.28 0 0 0 10.611 10.902 A 2.07 2.07 0 0 0 10.784 11.079 A 2.231 2.231 0 0 0 11.54 11.527 A 2.689 2.689 0 0 0 12.424 11.681 A 3.027 3.027 0 0 0 12.454 11.681 Q 13.271 11.681 13.772 11.303 A 1.192 1.192 0 0 0 14.2 10.666 Q 14.273 10.415 14.273 10.099 Q 14.273 9.668 14.12 9.36 Q 13.966 9.053 13.68 8.811 A 2.494 2.494 0 0 0 13.319 8.559 A 3.313 3.313 0 0 0 12.981 8.389 Q 12.582 8.215 12.075 8.02 A 30.896 30.896 0 0 0 12.041 8.007 A 18.091 18.091 0 0 1 10.793 7.532 A 4.998 4.998 0 0 1 9.931 7.068 A 4.48 4.48 0 0 1 9.677 6.882 A 3.043 3.043 0 0 1 8.877 5.928 A 2.363 2.363 0 0 1 8.656 5.332 Q 8.569 4.958 8.569 4.5 A 3.492 3.492 0 0 1 8.63 3.833 A 2.632 2.632 0 0 1 8.846 3.177 Q 9.123 2.61 9.584 2.224 A 3.145 3.145 0 0 1 10.572 1.668 A 3.603 3.603 0 0 1 10.657 1.639 A 4.141 4.141 0 0 1 11.825 1.443 A 4.682 4.682 0 0 1 11.953 1.441 A 3.144 3.144 0 0 1 12.602 1.505 A 2.334 2.334 0 0 1 13.311 1.775 A 2.333 2.333 0 0 1 14.186 2.663 L 14.186 1.635 L 15.82 1.635 L 15.82 5.203 L 14.186 5.203 A 3.092 3.092 0 0 0 14.124 4.567 Q 14.041 4.173 13.846 3.872 A 1.745 1.745 0 0 0 13.654 3.626 A 1.762 1.762 0 0 0 12.6 3.086 A 2.495 2.495 0 0 0 12.226 3.059 A 2.795 2.795 0 0 0 11.638 3.117 A 1.957 1.957 0 0 0 10.912 3.428 A 1.173 1.173 0 0 0 10.4 4.278 A 1.555 1.555 0 0 0 10.389 4.465 A 1.442 1.442 0 0 0 10.413 4.736 Q 10.446 4.907 10.522 5.045 A 0.906 0.906 0 0 0 10.525 5.049 A 1.332 1.332 0 0 0 10.743 5.334 A 1.725 1.725 0 0 0 10.92 5.489 Q 11.143 5.659 11.467 5.809 A 4.482 4.482 0 0 0 11.575 5.858 A 21.579 21.579 0 0 0 11.945 6.014 Q 12.134 6.092 12.346 6.175 A 36.843 36.843 0 0 0 12.489 6.231 A 16.059 16.059 0 0 1 13.781 6.75 A 5.12 5.12 0 0 1 14.82 7.371 A 4.741 4.741 0 0 1 14.933 7.462 A 3.429 3.429 0 0 1 15.768 8.486 A 2.589 2.589 0 0 1 16.021 9.201 Q 16.084 9.507 16.092 9.857 A 4.533 4.533 0 0 1 16.093 9.958 A 4.004 4.004 0 0 1 16.026 10.706 A 3.139 3.139 0 0 1 15.825 11.369 A 3.17 3.17 0 0 1 15.294 12.214 A 2.943 2.943 0 0 1 15.095 12.419 Q 14.634 12.85 13.997 13.078 Q 13.359 13.307 12.639 13.307 A 3.881 3.881 0 0 1 11.78 13.215 A 3.211 3.211 0 0 1 11.18 13.017 A 2.549 2.549 0 0 1 10.34 12.404 A 3.264 3.264 0 0 1 10.063 12.059 Z M 19.134 16.383 L 19.134 14.757 L 20.487 14.757 A 1.801 1.801 0 0 0 20.702 14.745 Q 20.931 14.717 21.06 14.625 A 0.407 0.407 0 0 0 21.125 14.568 Q 21.278 14.399 21.294 14.007 A 2.306 2.306 0 0 0 21.296 13.913 L 21.296 10.134 Q 21.296 9.738 21.441 9.396 A 2.332 2.332 0 0 1 21.7 8.933 A 2.086 2.086 0 0 1 21.81 8.793 A 1.756 1.756 0 0 1 22.329 8.38 A 2.033 2.033 0 0 1 22.948 8.174 A 2.103 2.103 0 0 1 21.908 7.644 A 2.609 2.609 0 0 1 21.797 7.537 A 1.741 1.741 0 0 1 21.32 6.544 A 2.419 2.419 0 0 1 21.296 6.196 L 21.296 2.452 Q 21.296 2.075 21.187 1.889 A 0.405 0.405 0 0 0 21.125 1.806 A 0.46 0.46 0 0 0 20.974 1.709 Q 20.835 1.651 20.618 1.639 A 2.197 2.197 0 0 0 20.487 1.635 L 19.134 1.635 L 19.134 0 L 20.487 0 A 2.783 2.783 0 0 1 21.123 0.07 A 2.398 2.398 0 0 1 21.472 0.18 Q 21.92 0.36 22.245 0.686 A 2.285 2.285 0 0 1 22.75 1.459 Q 22.931 1.907 22.931 2.452 L 22.931 6.196 A 2.04 2.04 0 0 0 22.953 6.513 Q 22.979 6.678 23.035 6.805 A 0.656 0.656 0 0 0 23.344 7.141 A 1.573 1.573 0 0 0 23.657 7.254 Q 24.022 7.348 24.565 7.348 L 24.565 8.982 A 4.912 4.912 0 0 0 24.142 8.999 Q 23.641 9.043 23.344 9.198 A 0.685 0.685 0 0 0 23.026 9.558 Q 22.972 9.687 22.949 9.853 A 2.011 2.011 0 0 0 22.931 10.134 L 22.931 13.913 A 2.857 2.857 0 0 1 22.868 14.522 A 2.393 2.393 0 0 1 22.75 14.906 A 2.382 2.382 0 0 1 22.245 15.689 A 2.222 2.222 0 0 1 21.472 16.203 Q 21.023 16.383 20.487 16.383 L 19.134 16.383 Z M 5.44 14.757 L 5.44 16.383 L 4.087 16.383 A 2.791 2.791 0 0 1 3.419 16.305 A 2.442 2.442 0 0 1 3.098 16.203 A 2.17 2.17 0 0 1 2.325 15.689 Q 2.004 15.355 1.824 14.906 Q 1.644 14.458 1.644 13.913 L 1.644 10.169 Q 1.644 9.789 1.529 9.549 A 0.672 0.672 0 0 0 1.23 9.233 A 1.527 1.527 0 0 0 0.916 9.115 Q 0.549 9.018 0 9.018 L 0 7.383 A 5.218 5.218 0 0 0 0.428 7.367 Q 0.857 7.331 1.136 7.219 A 1.285 1.285 0 0 0 1.23 7.176 A 0.657 0.657 0 0 0 1.54 6.837 Q 1.595 6.711 1.621 6.548 A 2.04 2.04 0 0 0 1.644 6.231 L 1.644 2.487 A 2.857 2.857 0 0 1 1.706 1.878 A 2.393 2.393 0 0 1 1.824 1.494 Q 2.004 1.046 2.325 0.712 A 2.263 2.263 0 0 1 3.07 0.201 A 2.593 2.593 0 0 1 3.098 0.189 A 2.474 2.474 0 0 1 3.889 0.007 A 2.917 2.917 0 0 1 4.087 0 L 5.44 0 L 5.44 1.635 L 4.087 1.635 A 1.801 1.801 0 0 0 3.872 1.647 Q 3.643 1.674 3.515 1.766 A 0.407 0.407 0 0 0 3.45 1.824 Q 3.298 1.991 3.281 2.38 A 2.362 2.362 0 0 0 3.278 2.487 L 3.278 6.231 A 2.201 2.201 0 0 1 3.198 6.84 A 1.693 1.693 0 0 1 2.773 7.572 A 2.36 2.36 0 0 1 2.207 8.003 A 2.029 2.029 0 0 1 1.626 8.209 A 2.033 2.033 0 0 1 2.246 8.416 A 1.756 1.756 0 0 1 2.764 8.829 A 2.21 2.21 0 0 1 3.084 9.32 A 2.552 2.552 0 0 1 3.133 9.431 A 1.862 1.862 0 0 1 3.278 10.12 A 2.131 2.131 0 0 1 3.278 10.169 L 3.278 13.913 A 2.015 2.015 0 0 0 3.289 14.129 Q 3.314 14.361 3.398 14.499 A 0.46 0.46 0 0 0 3.45 14.568 Q 3.602 14.736 3.986 14.754 A 2.061 2.061 0 0 0 4.087 14.757 L 5.44 14.757 Z" vector-effect="non-scaling-stroke"/></g></svg>